<svg width="270" height="49" viewBox="0 0 270 49" fill="none" xmlns="http://www.w3.org/2000/svg">
<path d="M113.376 20.4494L111.01 20.5046V11.0414H113.722C115.776 11.0414 116.451 12.5486 116.451 15.8414C116.451 19.1342 115.692 20.4494 113.376 20.4494ZM125.316 42.0254V31.883C125.316 27.0734 123.6 24.2774 119.933 23.6198C124.196 22.4894 125.362 18.9134 125.362 14.3342C125.362 7.87822 123.041 3.86542 115.512 3.86542H102.029L102.036 45.6662H111.012V27.491H113.225C115.385 27.491 116.41 28.9814 116.41 30.971V42.0902C116.41 43.9382 116.782 45.3014 117.036 45.6638H126.116C125.799 45.3182 125.316 43.8758 125.316 42.0254Z" fill="black"/>
<path d="M24.6288 38.5574C26.2344 37.2182 26.5104 35.5598 26.5104 34.0718V27.8222H17.784V36.3014C17.784 37.5158 16.8024 38.4998 15.5904 38.4998C14.3784 38.4998 13.476 37.5158 13.476 36.3014V12.2798C13.476 11.0678 14.3784 10.0838 15.5904 10.0838C16.8024 10.0838 17.784 11.0678 17.784 12.2798V20.8142H26.4984V11.9606C26.4984 7.06943 23.3016 3.04463 15.516 3.03503C7.5216 3.03503 4.5 7.07903 4.5 11.9702V37.0526C4.5 41.9006 8.3496 45.5678 13.272 45.5678H15.9744L24.6288 38.5574Z" fill="black"/>
<path d="M252.454 20.4278H250.07V11.0198H252.797C254.846 11.0198 255.526 12.527 255.526 15.8174C255.526 19.1126 254.772 20.4278 252.454 20.4278ZM264.384 42.0038V31.859C264.384 27.0518 262.675 24.2558 259.008 23.5958C263.27 22.4678 264.437 18.8942 264.437 14.3174C264.437 7.85661 262.109 3.84381 254.587 3.84381H241.102V45.6446H250.099V27.4718H252.295C254.46 27.4718 255.473 28.9598 255.473 30.9518V42.071C255.473 43.9214 255.854 45.2822 256.106 45.6446H265.178C264.866 45.2966 264.384 43.8518 264.384 42.0038Z" fill="black"/>
<path d="M222.411 30.6038L224.748 11.099L227.081 30.6038H222.411ZM230.76 3.76221H218.691L211.52 45.6422H220.606L221.496 38.2526L227.988 38.2478L228.874 45.6422H237.968L230.76 3.76221Z" fill="black"/>
<path d="M170.574 45.6375V3.85345H179.781V37.7055H189.373V45.6375H170.574Z" fill="black"/>
<path d="M165.699 3.85583H156.5V45.6398H165.699V3.85583Z" fill="black"/>
<path d="M170.574 45.6375V3.85345H179.781V37.7055H189.373V45.6375H170.574Z" fill="black"/>
<path d="M191.59 45.6375V3.85345H200.789V37.7055H210.387V45.6375H191.59Z" fill="black"/>
<path d="M141.437 21.6686L138.691 21.635V11.0366H141.422C143.755 11.0366 144.146 12.635 144.146 16.4606C144.146 20.4134 143.753 21.6686 141.437 21.6686ZM143.753 3.85583H129.725V45.6566H138.72V29.0678H143.753C152.016 29.0678 153.41 23.8022 153.41 16.4606C153.413 9.12143 152.018 3.85583 143.753 3.85583Z" fill="black"/>
<path d="M86.4869 11.8191V20.0991H96.0125V28.2855H86.4869V37.5639L97.8053 37.5591V45.6255L77.2733 45.6351V3.84625H77.2637H97.4333V11.8191H86.4869Z" fill="black"/>
<path d="M59.0299 39.5414V11.9774H53.0059V3.85822H74.8027V11.9774H68.7499V45.5174H66.1675L59.0299 39.5414Z" fill="black"/>
<path d="M62.936 45.5799L41.7104 27.7935L19.7168 45.5799H62.936Z" fill="#FFC400"/>
<path d="M39.3618 23.0006L41.7114 10.991L44.049 23.0006H39.3618ZM47.7642 3.90143H35.6058L28.5234 35.6846L41.7138 25.0358L55.4658 36.5606L47.7642 3.90143Z" fill="black"/>
</svg>
