<svg width="92" height="49" viewBox="0 0 92 49" fill="none" xmlns="http://www.w3.org/2000/svg">
<g clip-path="url(#clip0_13_45)">
<path d="M45.696 32.6002C45.5772 32.5678 43.7503 32.0966 41.8088 32.0966C38.133 32.0966 35.92 34.0815 35.92 37.0373C35.92 39.6537 37.7714 40.9585 39.9932 41.6604C40.2396 41.7417 40.6025 41.8554 40.8442 41.9354C41.8332 42.2465 42.6227 42.7088 42.6227 43.5097C42.6227 44.4053 41.7103 44.985 39.7267 44.985C37.9836 44.985 36.3124 44.4865 35.9604 44.3977V48.0343C36.1566 48.076 38.1427 48.4659 40.2644 48.4659C43.3162 48.4659 46.8071 47.1324 46.8071 43.1627C46.8071 41.2372 45.6282 39.4646 43.04 38.6419L41.9398 38.2916C41.2834 38.0844 40.1116 37.7488 40.1116 36.7867C40.1116 36.0267 40.9798 35.4916 42.5785 35.4916C43.9579 35.4916 45.6366 35.9551 45.696 35.9737V32.6002ZM79.3974 40.2815C79.3974 42.5808 77.6362 44.441 75.2728 44.441C72.9069 44.441 71.1503 42.5808 71.1503 40.2815C71.1503 37.9867 72.9069 36.1257 75.2728 36.1257C77.6362 36.1257 79.3974 37.9867 79.3974 40.2815ZM75.2728 32.1017C70.4122 32.1017 66.9263 35.7678 66.9263 40.2815C66.9263 44.8023 70.4122 48.4659 75.2728 48.4659C80.133 48.4659 83.624 44.8023 83.624 40.2815C83.624 35.7678 80.133 32.1017 75.2728 32.1017ZM30.5722 48.1846H26.584V32.3817H30.5722" fill="#049FD9"/>
<path d="M21.1006 32.668C20.7259 32.5568 19.3406 32.1017 17.4644 32.1017C12.6114 32.1017 9.04883 35.5619 9.04883 40.2815C9.04883 45.3733 12.9815 48.4659 17.4644 48.4659C19.2455 48.4659 20.605 48.044 21.1006 47.9034V43.6613C20.9292 43.7564 19.6257 44.5 17.7503 44.5C15.0935 44.5 13.3798 42.6301 13.3798 40.2815C13.3798 37.8613 15.1676 36.0663 17.7503 36.0663C19.6577 36.0663 20.9402 36.8263 21.1006 36.9101" fill="#049FD9"/>
<path d="M62.7256 32.668C62.3509 32.5568 60.9656 32.1017 59.0894 32.1017C54.2364 32.1017 50.6738 35.5619 50.6738 40.2815C50.6738 45.3733 54.6065 48.4659 59.0894 48.4659C60.8705 48.4659 62.23 48.044 62.7256 47.9034V43.6613C62.5542 43.7564 61.2507 44.5 59.3753 44.5C56.7185 44.5 55.0048 42.6301 55.0048 40.2815C55.0048 37.8613 56.7926 36.0663 59.3753 36.0663C61.2827 36.0663 62.5652 36.8263 62.7256 36.9101" fill="#049FD9"/>
<path d="M26.5712 2.50376C26.5712 1.4145 25.6815 0.531128 24.591 0.531128C23.5009 0.531128 22.6112 1.4145 22.6112 2.50376V23.489C22.6112 24.5846 23.5009 25.4675 24.591 25.4675C25.6815 25.4675 26.5712 24.5846 26.5712 23.489V2.50376ZM15.6959 9.95302C15.6959 8.86418 14.8066 7.97955 13.7161 7.97955C12.6255 7.97955 11.7363 8.86418 11.7363 9.95302V19.5467C11.7363 20.6419 12.6255 21.5252 13.7161 21.5252C14.8066 21.5252 15.6959 20.6419 15.6959 19.5467V9.95302ZM4.82091 15.3981C4.82091 14.3088 3.93164 13.4259 2.84112 13.4259C1.75185 13.4259 0.861328 14.3088 0.861328 15.3981V19.5467C0.861328 20.6419 1.75185 21.5252 2.84112 21.5252C3.93164 21.5252 4.82091 20.6419 4.82091 19.5467" fill="#049FD9"/>
<path d="M22.6104 2.50376C22.6104 1.4145 23.5001 0.531128 24.5906 0.531128C25.6807 0.531128 26.5704 1.4145 26.5704 2.50376V23.489C26.5704 24.5846 25.6807 25.4675 24.5906 25.4675C23.5001 25.4675 22.6104 24.5846 22.6104 23.489V2.50376ZM33.4858 9.95302C33.4858 8.86418 34.375 7.97955 35.4656 7.97955C36.5561 7.97955 37.4454 8.86418 37.4454 9.95302V19.5467C37.4454 20.6419 36.5561 21.5252 35.4656 21.5252C34.375 21.5252 33.4858 20.6419 33.4858 19.5467V9.95302ZM44.3607 15.3981C44.3607 14.3088 45.25 13.4259 46.3405 13.4259C47.4298 13.4259 48.3203 14.3088 48.3203 15.3981V19.5467C48.3203 20.6419 47.4298 21.5252 46.3405 21.5252C45.25 21.5252 44.3607 20.6419 44.3607 19.5467" fill="#049FD9"/>
<path d="M66.0987 2.50376C66.0987 1.4145 66.9884 0.531128 68.0789 0.531128C69.169 0.531128 70.0587 1.4145 70.0587 2.50376V23.489C70.0587 24.5846 69.169 25.4675 68.0789 25.4675C66.9884 25.4675 66.0987 24.5846 66.0987 23.489V2.50376ZM76.9741 9.95302C76.9741 8.86418 77.8633 7.97955 78.9539 7.97955C80.0444 7.97955 80.9336 8.86418 80.9336 9.95302V19.5467C80.9336 20.6419 80.0444 21.5252 78.9539 21.5252C77.8633 21.5252 76.9741 20.6419 76.9741 19.5467V9.95302ZM87.849 15.3981C87.849 14.3088 88.7383 13.4259 89.8288 13.4259C90.9181 13.4259 91.8086 14.3088 91.8086 15.3981V19.5467C91.8086 20.6419 90.9181 21.5252 89.8288 21.5252C88.7383 21.5252 87.849 20.6419 87.849 19.5467" fill="#049FD9"/>
<path d="M70.0595 2.50376C70.0595 1.4145 69.1698 0.531128 68.0793 0.531128C66.9892 0.531128 66.0995 1.4145 66.0995 2.50376V23.489C66.0995 24.5846 66.9892 25.4675 68.0793 25.4675C69.1698 25.4675 70.0595 24.5846 70.0595 23.489V2.50376ZM59.1841 9.95302C59.1841 8.86418 58.2949 7.97955 57.2043 7.97955C56.1138 7.97955 55.2246 8.86418 55.2246 9.95302V19.5467C55.2246 20.6419 56.1138 21.5252 57.2043 21.5252C58.2949 21.5252 59.1841 20.6419 59.1841 19.5467V9.95302ZM48.3092 15.3981C48.3092 14.3088 47.4199 13.4259 46.3294 13.4259C45.2401 13.4259 44.3496 14.3088 44.3496 15.3981V19.5467C44.3496 20.6419 45.2401 21.5252 46.3294 21.5252C47.4199 21.5252 48.3092 20.6419 48.3092 19.5467" fill="#049FD9"/>
</g>
<defs>
<clipPath id="clip0_13_45">
<rect width="90.9474" height="48" fill="white" transform="translate(0.861328 0.5)"/>
</clipPath>
</defs>
</svg>
