<svg width="49" height="49" viewBox="0 0 49 49" fill="none" xmlns="http://www.w3.org/2000/svg">
<g clip-path="url(#clip0_13_43)">
<path d="M22.915 18.5393L16.9537 23.1253C16.3424 20.8319 14.3544 19.1499 11.9084 19.1499H7.62844V29.6979H11.9084C14.3542 29.6979 16.494 28.0157 16.9526 25.7227L22.9149 30.3086L28.8772 25.7227V29.6979H35.6025V27.5573H31.1702V19.15H28.7236V23.1239L23.0674 27.7112L21.844 26.6405L24.5967 24.4999L27.5004 22.2069L25.8194 20.8319L20.1631 25.2641L18.9404 24.1938L24.5967 19.9139L22.9144 18.5389L22.915 18.5393ZM9.9217 21.2893H11.7564C12.1385 21.2893 12.5114 21.3764 12.8553 21.5341C13.1993 21.6917 13.5136 21.9206 13.7811 22.2073C14.0486 22.4939 14.2689 22.8372 14.4217 23.2242C14.5746 23.6111 14.66 24.0417 14.66 24.5003C14.66 24.9206 14.5835 25.3314 14.4426 25.7112C14.3016 26.091 14.0964 26.4397 13.8384 26.7359C13.5804 27.0321 13.2702 27.276 12.9191 27.4456C12.568 27.6152 12.1767 27.7099 11.7564 27.7099H9.92173L9.9217 21.2893ZM43.2464 27.558V29.6981H36.5204V19.1501H38.9662V27.5575L43.2464 27.558ZM24.5957 0.5C11.449 0.5 0.595703 11.3533 0.595703 24.5C0.595703 37.6467 11.2964 48.5 24.5957 48.5C37.895 48.5 48.5957 37.7993 48.5957 24.5C48.5957 11.2007 37.7424 0.5 24.5957 0.5ZM24.5957 2.9466C26.0861 2.94658 27.5402 3.09618 28.9446 3.3828C30.3491 3.66942 31.7043 4.09213 32.9941 4.63673C34.2839 5.18132 35.5091 5.84853 36.6556 6.6224C37.802 7.39627 38.8698 8.2768 39.8444 9.25133C40.8189 10.2259 41.6994 11.2937 42.4733 12.4401C43.2472 13.5866 43.9144 14.8118 44.459 16.1016C45.0036 17.3914 45.4262 18.7467 45.7129 20.1511C45.9995 21.5555 46.1491 23.0096 46.1491 24.5C46.1491 25.9904 45.9995 27.4445 45.7129 28.8489C45.4263 30.2534 45.0036 31.6086 44.459 32.8984C43.9144 34.1882 43.2472 35.4134 42.4733 36.5599C41.6994 37.7063 40.8189 38.7741 39.8444 39.7487C38.8698 40.7232 37.802 41.6037 36.6556 42.3776C35.5091 43.1515 34.2839 43.8187 32.9941 44.3633C31.7043 44.9079 30.349 45.3305 28.9446 45.6172C27.5402 45.9038 26.0861 46.0534 24.5957 46.0534C23.1053 46.0534 21.6512 45.9038 20.2468 45.6172C18.8421 45.3325 17.4868 44.9099 16.1968 44.3652C14.9074 43.8205 13.6821 43.1532 12.5354 42.3792C11.3888 41.6059 10.3214 40.7252 9.34677 39.7505C8.3721 38.7759 7.49144 37.7085 6.71784 36.5619C5.94397 35.4152 5.27677 34.1899 4.73217 32.9005C4.18757 31.6105 3.7649 30.2552 3.47824 28.8505C3.19164 27.4465 3.04204 25.9925 3.04204 24.5019C3.04204 23.0112 3.19164 21.5572 3.47824 20.1532C3.76484 18.7485 4.18757 17.3932 4.73217 16.1032C5.27677 14.8139 5.94397 13.5885 6.71784 12.4419C7.49144 11.2952 8.3721 10.2279 9.34677 9.2532C10.3214 8.27853 11.3888 7.39787 12.5354 6.62427C13.6821 5.8504 14.9074 5.1832 16.1968 4.6386C17.4868 4.094 18.8421 3.67133 20.2468 3.38467C21.6508 3.09807 23.1048 2.94847 24.5954 2.94847L24.5957 2.9466Z" fill="#007DB8"/>
</g>
<defs>
<clipPath id="clip0_13_43">
<rect width="48" height="48" fill="white" transform="translate(0.595703 0.5)"/>
</clipPath>
</defs>
</svg>
