<svg width="231" height="49" viewBox="0 0 231 49" fill="none" xmlns="http://www.w3.org/2000/svg">
<g clip-path="url(#clip0_16_4)">
<path d="M24.6568 48.02C37.6494 48.02 48.1787 37.4907 48.1787 24.5019C48.1787 11.5131 37.6494 0.97998 24.6568 0.97998C11.668 0.97998 1.13867 11.5131 1.13867 24.5019C1.13867 37.4907 11.668 48.02 24.6568 48.02Z" fill="white"/>
<path d="M29.9348 18.3761C29.9348 15.7016 31.7454 13.1077 32.7332 13.5963C33.8593 14.1608 31.8894 16.6798 29.9348 18.3761ZM17.6228 19.3505C17.6228 17.2001 19.7444 13.1144 21.0404 13.5464C22.5726 14.0571 19.7713 18.1784 17.6228 19.3505ZM15.4715 34.7297C14.4961 34.7739 13.8433 34.1499 13.8433 33.1083C13.8433 30.3099 17.7265 27.6363 20.6593 26.2011C20.139 30.1083 18.819 34.579 15.4715 34.7297ZM33.387 25.6107C31.1723 25.6107 29.4798 27.2398 29.4798 29.1934C29.4798 30.8225 30.459 32.1253 31.7579 32.1253C32.2177 32.1253 32.6728 31.8632 32.6728 31.2814C32.6728 30.4299 31.5496 30.2254 31.634 28.9592C31.6907 28.124 32.4779 27.5653 33.2593 27.5653C34.8212 27.5653 35.5518 29.0792 35.5518 30.6411C35.4884 33.0536 33.7124 34.7288 31.6312 34.7288C28.8932 34.7288 27.1345 32.1253 27.1345 29.323C27.1345 25.1509 29.8724 23.5227 31.3067 23.1339C31.3201 23.1339 35.0526 23.7973 34.9364 22.1518C34.8827 21.428 33.8065 21.1496 33.0289 21.1198C32.164 21.0862 31.2904 21.3973 31.2904 21.3973C30.8372 21.1669 30.5224 20.7166 30.3275 20.1982C32.9992 18.1765 34.8884 16.2238 34.8884 14.0081C34.8884 12.836 34.1051 11.7934 32.6065 11.7934C29.9348 11.7934 27.915 15.1813 27.915 18.2437C27.915 18.763 27.915 19.2862 28.0494 19.7413C26.354 20.9777 25.0936 21.7486 22.8155 23.1166C22.8155 22.8315 22.875 22.0952 23.067 21.1429C23.8475 20.2952 24.9198 19.0251 24.9198 18.0469C24.9198 17.5918 24.6616 17.1992 24.1355 17.1992C22.8347 17.1992 21.8593 19.1557 21.5982 20.5237C21.0116 21.2437 19.8385 22.1557 18.8593 22.1557C18.0788 22.1557 17.8168 21.4385 17.7505 21.1765C20.2273 20.3288 23.2897 16.9409 23.2897 13.8785C23.2897 13.2286 23.0286 11.7934 21.075 11.7934C18.1432 11.7934 15.6702 16.1605 15.6702 19.5445C14.6248 19.5445 14.236 18.4385 14.236 17.5909C14.236 16.7422 14.5614 15.8984 14.5614 15.6363C14.5614 15.3752 14.4308 15.0507 14.0382 15.0507C13.0628 15.0507 12.4763 16.3534 12.4763 17.852C12.5435 19.9371 13.9105 21.2437 15.7336 21.3713C15.9947 22.6107 17.1006 23.7838 18.4676 23.7838C19.3163 23.7838 20.3579 23.5227 21.075 22.8728C21.0116 23.3278 20.9483 23.7205 20.8811 24.1093C18.0126 25.6107 15.9275 26.6523 14.0382 28.3457C12.5435 29.7157 11.6958 31.5387 11.6958 32.9701C11.6958 34.9275 12.9323 36.7505 15.4724 36.7505C18.4676 36.7505 20.7505 34.3409 21.8593 31.0165C22.3787 29.4545 22.587 27.1793 22.7204 25.0913C25.7137 23.395 27.1345 22.4177 28.6993 21.308C28.8942 21.6334 29.091 21.8936 29.3492 22.0885C27.9822 22.8056 24.7249 24.8264 24.7249 29.5813C24.7249 32.9691 27.003 36.7496 31.5016 36.7496C35.2148 36.7496 37.755 33.6862 37.755 30.7534C37.754 28.0846 36.2555 25.6107 33.387 25.6107ZM44.5892 31.2075C44.5796 31.2277 44.5432 31.2545 44.4692 31.2305C44.4116 31.2104 44.3992 31.1835 44.3992 31.1461C44.402 31.1096 45.1864 28.7902 45.1796 26.1329C45.1729 23.2606 44.0075 21.5009 42.5128 21.5009C41.5979 21.5009 40.947 22.1547 40.947 23.1339C40.947 24.8926 43.0955 25.0241 43.0955 28.867C43.0955 30.4289 42.77 31.9275 42.2516 33.5557C39.8382 41.6984 32.1505 45.4789 24.6616 45.4789C21.2065 45.4789 18.7528 44.7685 18.0232 44.4411C17.9934 44.4238 17.9656 44.3672 17.9896 44.3096C18.0059 44.2664 18.0568 44.2328 18.0865 44.2462C18.3822 44.3605 20.4894 45.0238 23.0968 45.0238C25.9624 45.0238 27.6577 43.8517 27.6577 42.4165C27.6577 41.5054 26.9406 40.7883 26.0296 40.7883C24.2699 40.7883 24.1364 43.003 20.3588 43.003C18.7307 43.003 17.2964 42.6776 15.604 42.1544C7.52267 39.6795 3.67595 32.059 3.67883 24.5019C3.68171 20.8193 4.71467 17.8865 4.73099 17.8597C4.74443 17.8405 4.79051 17.8193 4.84715 17.8405C4.90475 17.8597 4.91723 17.9067 4.91435 17.924C4.82123 18.2293 4.13675 20.3307 4.13675 22.9381C4.13675 25.8065 5.30891 27.499 6.80747 27.499C7.65227 27.499 8.36939 26.8491 8.36939 25.9371C8.36939 24.1755 6.21803 23.9806 6.21803 20.2011C6.21803 18.572 6.54635 17.1377 7.06571 15.4453C9.54251 7.3659 17.1668 3.57966 24.6596 3.5211C28.1416 3.49422 31.1876 4.53678 31.3048 4.6299C31.3249 4.64718 31.3451 4.69134 31.3249 4.74414C31.2971 4.8075 31.2568 4.81422 31.2376 4.81038C31.2011 4.8075 29.2196 3.97902 26.2206 3.97902C23.4193 3.97614 21.6596 5.14926 21.6596 6.64974C21.6596 7.49454 22.3134 8.21166 23.2878 8.21166C25.0475 8.21166 25.178 6.06318 28.9585 6.06318C30.5828 6.06318 32.018 6.38478 33.7105 6.90798C41.8571 9.38382 45.5636 17.0715 45.6337 24.5009C45.6721 28.3054 44.5998 31.1835 44.5892 31.2075ZM24.6606 2.08878C12.2814 2.08878 2.24843 12.1189 2.24843 24.5009C2.24843 36.8801 12.2814 46.9102 24.6606 46.9102C37.0369 46.9102 47.0699 36.8801 47.0699 24.5009C47.0699 12.1861 37.0369 2.08878 24.6606 2.08878ZM24.6606 48.02C11.6948 48.02 1.13867 37.531 1.13867 24.5019C1.13867 11.5323 11.6948 0.97998 24.6606 0.97998C37.6225 0.97998 48.1787 11.5323 48.1787 24.5019C48.1787 37.531 37.6225 48.02 24.6606 48.02Z" fill="#3B73B9"/>
<path d="M72.0895 21.11C71.6935 20.3473 71.1435 19.7753 70.4395 19.394C69.7355 18.998 68.9215 18.8 67.9975 18.8C66.9855 18.8 66.0835 19.0273 65.2915 19.482C64.4995 19.9366 63.8762 20.582 63.4215 21.418C62.9815 22.254 62.7615 23.222 62.7615 24.322C62.7615 25.422 62.9815 26.3973 63.4215 27.248C63.8762 28.084 64.4995 28.7293 65.2915 29.184C66.0835 29.6386 66.9855 29.866 67.9975 29.866C69.3615 29.866 70.4688 29.4846 71.3195 28.722C72.1702 27.9593 72.6908 26.9253 72.8815 25.62H67.1395V23.618H75.5655V25.576C75.4042 26.764 74.9788 27.8566 74.2895 28.854C73.6148 29.8513 72.7275 30.6506 71.6275 31.252C70.5422 31.8386 69.3322 32.132 67.9975 32.132C66.5602 32.132 65.2475 31.802 64.0595 31.142C62.8715 30.4673 61.9255 29.536 61.2215 28.348C60.5322 27.16 60.1875 25.818 60.1875 24.322C60.1875 22.826 60.5322 21.484 61.2215 20.296C61.9255 19.108 62.8715 18.184 64.0595 17.524C65.2622 16.8493 66.5748 16.512 67.9975 16.512C69.6255 16.512 71.0702 16.9153 72.3315 17.722C73.6075 18.514 74.5315 19.6433 75.1035 21.11H72.0895Z" fill="#3B73B9"/>
<path d="M89.1491 25.642C89.1491 26.0966 89.1198 26.5073 89.0611 26.874H79.7991C79.8725 27.842 80.2318 28.6193 80.8771 29.206C81.5225 29.7926 82.3145 30.086 83.2531 30.086C84.6025 30.086 85.5558 29.5213 86.1131 28.392H88.8191C88.4525 29.5066 87.7851 30.4233 86.8171 31.142C85.8638 31.846 84.6758 32.198 83.2531 32.198C82.0945 32.198 81.0531 31.9413 80.1291 31.428C79.2198 30.9 78.5011 30.1666 77.9731 29.228C77.4598 28.2746 77.2031 27.1746 77.2031 25.928C77.2031 24.6813 77.4525 23.5886 77.9511 22.65C78.4645 21.6966 79.1758 20.9633 80.0851 20.45C81.0091 19.9366 82.0651 19.68 83.2531 19.68C84.3971 19.68 85.4165 19.9293 86.3111 20.428C87.2058 20.9266 87.9025 21.6306 88.4011 22.54C88.8998 23.4346 89.1491 24.4686 89.1491 25.642ZM86.5311 24.85C86.5165 23.926 86.1865 23.1853 85.5411 22.628C84.8958 22.0706 84.0965 21.792 83.1431 21.792C82.2778 21.792 81.5371 22.0706 80.9211 22.628C80.3051 23.1706 79.9385 23.9113 79.8211 24.85H86.5311Z" fill="#3B73B9"/>
<path d="M97.7333 19.68C98.6866 19.68 99.5373 19.878 100.285 20.274C101.048 20.67 101.642 21.2566 102.067 22.034C102.493 22.8113 102.705 23.75 102.705 24.85V32H100.219V25.224C100.219 24.1386 99.9479 23.31 99.4053 22.738C98.8626 22.1513 98.1219 21.858 97.1833 21.858C96.2446 21.858 95.4966 22.1513 94.9393 22.738C94.3966 23.31 94.1253 24.1386 94.1253 25.224V32H91.6173V19.878H94.1253V21.264C94.5359 20.7653 95.0566 20.3766 95.6873 20.098C96.3326 19.8193 97.0146 19.68 97.7333 19.68Z" fill="#3B73B9"/>
<path d="M117.014 25.642C117.014 26.0966 116.985 26.5073 116.926 26.874H107.664C107.738 27.842 108.097 28.6193 108.742 29.206C109.388 29.7926 110.18 30.086 111.118 30.086C112.468 30.086 113.421 29.5213 113.978 28.392H116.684C116.318 29.5066 115.65 30.4233 114.682 31.142C113.729 31.846 112.541 32.198 111.118 32.198C109.96 32.198 108.918 31.9413 107.994 31.428C107.085 30.9 106.366 30.1666 105.838 29.228C105.325 28.2746 105.068 27.1746 105.068 25.928C105.068 24.6813 105.318 23.5886 105.816 22.65C106.33 21.6966 107.041 20.9633 107.95 20.45C108.874 19.9366 109.93 19.68 111.118 19.68C112.262 19.68 113.282 19.9293 114.176 20.428C115.071 20.9266 115.768 21.6306 116.266 22.54C116.765 23.4346 117.014 24.4686 117.014 25.642ZM114.396 24.85C114.382 23.926 114.052 23.1853 113.406 22.628C112.761 22.0706 111.962 21.792 111.008 21.792C110.143 21.792 109.402 22.0706 108.786 22.628C108.17 23.1706 107.804 23.9113 107.686 24.85H114.396Z" fill="#3B73B9"/>
<path d="M121.991 21.638C122.357 21.022 122.841 20.5453 123.442 20.208C124.058 19.856 124.785 19.68 125.62 19.68V22.276H124.982C124 22.276 123.252 22.5253 122.739 23.024C122.24 23.5226 121.991 24.388 121.991 25.62V32H119.482V19.878H121.991V21.638Z" fill="#3B73B9"/>
<path d="M129.202 18.272C128.747 18.272 128.366 18.118 128.058 17.81C127.75 17.502 127.596 17.1206 127.596 16.666C127.596 16.2113 127.75 15.83 128.058 15.522C128.366 15.214 128.747 15.06 129.202 15.06C129.642 15.06 130.016 15.214 130.324 15.522C130.632 15.83 130.786 16.2113 130.786 16.666C130.786 17.1206 130.632 17.502 130.324 17.81C130.016 18.118 129.642 18.272 129.202 18.272ZM130.434 19.878V32H127.926V19.878H130.434Z" fill="#3B73B9"/>
<path d="M132.891 25.928C132.891 24.6813 133.14 23.5886 133.639 22.65C134.152 21.6966 134.856 20.9633 135.751 20.45C136.645 19.9366 137.672 19.68 138.831 19.68C140.297 19.68 141.507 20.032 142.461 20.736C143.429 21.4253 144.081 22.4153 144.419 23.706H141.713C141.493 23.1046 141.141 22.6353 140.657 22.298C140.173 21.9606 139.564 21.792 138.831 21.792C137.804 21.792 136.983 22.1586 136.367 22.892C135.765 23.6106 135.465 24.6226 135.465 25.928C135.465 27.2333 135.765 28.2526 136.367 28.986C136.983 29.7193 137.804 30.086 138.831 30.086C140.283 30.086 141.243 29.448 141.713 28.172H144.419C144.067 29.404 143.407 30.3866 142.439 31.12C141.471 31.8386 140.268 32.198 138.831 32.198C137.672 32.198 136.645 31.9413 135.751 31.428C134.856 30.9 134.152 30.1666 133.639 29.228C133.14 28.2746 132.891 27.1746 132.891 25.928Z" fill="#3B73B9"/>
<path d="M155.141 18.734V23.222H160.421V25.268H155.141V29.954H161.081V32H152.633V16.688H161.081V18.734H155.141Z" fill="#3B73B9"/>
<path d="M166.678 15.72V32H164.17V15.72H166.678Z" fill="#3B73B9"/>
<path d="M181.081 25.642C181.081 26.0966 181.051 26.5073 180.993 26.874H171.731C171.804 27.842 172.163 28.6193 172.809 29.206C173.454 29.7926 174.246 30.086 175.185 30.086C176.534 30.086 177.487 29.5213 178.045 28.392H180.751C180.384 29.5066 179.717 30.4233 178.749 31.142C177.795 31.846 176.607 32.198 175.185 32.198C174.026 32.198 172.985 31.9413 172.061 31.428C171.151 30.9 170.433 30.1666 169.905 29.228C169.391 28.2746 169.135 27.1746 169.135 25.928C169.135 24.6813 169.384 23.5886 169.883 22.65C170.396 21.6966 171.107 20.9633 172.017 20.45C172.941 19.9366 173.997 19.68 175.185 19.68C176.329 19.68 177.348 19.9293 178.243 20.428C179.137 20.9266 179.834 21.6306 180.333 22.54C180.831 23.4346 181.081 24.4686 181.081 25.642ZM178.463 24.85C178.448 23.926 178.118 23.1853 177.473 22.628C176.827 22.0706 176.028 21.792 175.075 21.792C174.209 21.792 173.469 22.0706 172.853 22.628C172.237 23.1706 171.87 23.9113 171.753 24.85H178.463Z" fill="#3B73B9"/>
<path d="M182.713 25.928C182.713 24.6813 182.962 23.5886 183.461 22.65C183.974 21.6966 184.678 20.9633 185.573 20.45C186.468 19.9366 187.494 19.68 188.653 19.68C190.12 19.68 191.33 20.032 192.283 20.736C193.251 21.4253 193.904 22.4153 194.241 23.706H191.535C191.315 23.1046 190.963 22.6353 190.479 22.298C189.995 21.9606 189.386 21.792 188.653 21.792C187.626 21.792 186.805 22.1586 186.189 22.892C185.588 23.6106 185.287 24.6226 185.287 25.928C185.287 27.2333 185.588 28.2526 186.189 28.986C186.805 29.7193 187.626 30.086 188.653 30.086C190.105 30.086 191.066 29.448 191.535 28.172H194.241C193.889 29.404 193.229 30.3866 192.261 31.12C191.293 31.8386 190.09 32.198 188.653 32.198C187.494 32.198 186.468 31.9413 185.573 31.428C184.678 30.9 183.974 30.1666 183.461 29.228C182.962 28.2746 182.713 27.1746 182.713 25.928Z" fill="#3B73B9"/>
<path d="M199.666 21.924V28.634C199.666 29.0886 199.769 29.4186 199.974 29.624C200.194 29.8146 200.561 29.91 201.074 29.91H202.614V32H200.634C199.505 32 198.64 31.736 198.038 31.208C197.437 30.68 197.136 29.822 197.136 28.634V21.924H195.706V19.878H197.136V16.864H199.666V19.878H202.614V21.924H199.666Z" fill="#3B73B9"/>
<path d="M207.434 21.638C207.801 21.022 208.285 20.5453 208.886 20.208C209.502 19.856 210.228 19.68 211.064 19.68V22.276H210.426C209.443 22.276 208.695 22.5253 208.182 23.024C207.683 23.5226 207.434 24.388 207.434 25.62V32H204.926V19.878H207.434V21.638Z" fill="#3B73B9"/>
<path d="M214.645 18.272C214.191 18.272 213.809 18.118 213.501 17.81C213.193 17.502 213.039 17.1206 213.039 16.666C213.039 16.2113 213.193 15.83 213.501 15.522C213.809 15.214 214.191 15.06 214.645 15.06C215.085 15.06 215.459 15.214 215.767 15.522C216.075 15.83 216.229 16.2113 216.229 16.666C216.229 17.1206 216.075 17.502 215.767 17.81C215.459 18.118 215.085 18.272 214.645 18.272ZM215.877 19.878V32H213.369V19.878H215.877Z" fill="#3B73B9"/>
<path d="M218.334 25.928C218.334 24.6813 218.583 23.5886 219.082 22.65C219.595 21.6966 220.299 20.9633 221.194 20.45C222.089 19.9366 223.115 19.68 224.274 19.68C225.741 19.68 226.951 20.032 227.904 20.736C228.872 21.4253 229.525 22.4153 229.862 23.706H227.156C226.936 23.1046 226.584 22.6353 226.1 22.298C225.616 21.9606 225.007 21.792 224.274 21.792C223.247 21.792 222.426 22.1586 221.81 22.892C221.209 23.6106 220.908 24.6226 220.908 25.928C220.908 27.2333 221.209 28.2526 221.81 28.986C222.426 29.7193 223.247 30.086 224.274 30.086C225.726 30.086 226.687 29.448 227.156 28.172H229.862C229.51 29.404 228.85 30.3866 227.882 31.12C226.914 31.8386 225.711 32.198 224.274 32.198C223.115 32.198 222.089 31.9413 221.194 31.428C220.299 30.9 219.595 30.1666 219.082 29.228C218.583 28.2746 218.334 27.1746 218.334 25.928Z" fill="#3B73B9"/>
</g>
<defs>
<clipPath id="clip0_16_4">
<rect width="231" height="48" fill="#3B73B9" transform="translate(0 0.5)"/>
</clipPath>
</defs>
</svg>
