<svg width="272" height="49" viewBox="0 0 272 49" fill="none" xmlns="http://www.w3.org/2000/svg">
<g clip-path="url(#clip0_13_33)">
<path fill-rule="evenodd" clip-rule="evenodd" d="M246.334 37.1368H256.629V0.5H246.334V37.1368Z" fill="#DE1E34"/>
<path fill-rule="evenodd" clip-rule="evenodd" d="M271.768 0.5V37.1368H261.475V0.5H271.768Z" fill="#DE1E34"/>
<path fill-rule="evenodd" clip-rule="evenodd" d="M22.7353 14.7298H14.4094V0.5H0.785156V37.1368H14.4094V18.9705H22.7353V37.1368H36.3609V0.5H22.7353V14.7298Z" fill="#DE1E34"/>
<path fill-rule="evenodd" clip-rule="evenodd" d="M86.6962 14.1243L85.8629 11.7028H74.6602V37.1368H85.8629V21.846C85.8629 18.5149 87.9833 16.6988 89.7995 16.6988C91.313 16.6988 93.2805 17.0014 93.2805 20.3325V37.1368H104.483V20.6354C104.483 11.4002 94.1152 7.76772 86.6962 14.1243Z" fill="#DE1E34"/>
<path fill-rule="evenodd" clip-rule="evenodd" d="M201.751 26.463L196.528 11.7028H188.883L183.66 27.0685L178.209 11.7028H167.537H167.461H163.223L157.848 24.6454L150.279 11.7028H137.486L152.549 37.4394L150.582 42.2824C149.9 43.7975 148.269 43.8724 147.949 42.4339C147.949 39.8328 145.84 37.7251 143.239 37.7251C140.638 37.7251 138.529 39.8328 138.529 42.4339C138.547 45.1595 141.272 48.7171 146.645 48.4895C152.02 48.2631 154.29 43.7975 155.047 41.9049L167.496 11.8019L176.47 37.1368H184.644L189.64 22.5264L194.787 37.1368H202.507L211.212 11.7028H206.747L201.751 26.463Z" fill="#DE1E34"/>
<path fill-rule="evenodd" clip-rule="evenodd" d="M55.6622 10.4098C47.0904 10.4098 40.1426 16.7835 40.1426 24.6454C40.1426 32.51 47.0904 38.8837 55.6622 38.8837C64.2355 38.8837 71.1848 32.51 71.1848 24.6454C71.1848 16.7835 64.2355 10.4098 55.6622 10.4098ZM59.5238 31.3061C59.5238 33.4391 57.7952 35.1677 55.6622 35.1677C53.532 35.1677 51.8034 33.4391 51.8034 31.3061V17.9859C51.8034 15.8544 53.532 14.1274 55.6622 14.1274C57.7952 14.1274 59.5238 15.8544 59.5238 17.9859V31.3061Z" fill="#DE1E34"/>
<path fill-rule="evenodd" clip-rule="evenodd" d="M138.73 26.6894C138.812 26.0937 138.854 25.2622 138.854 24.6454C138.854 16.7835 131.905 10.4098 123.333 10.4098C114.76 10.4098 107.811 16.7835 107.811 24.6454C107.811 32.51 114.76 38.8837 123.333 38.8837C129.223 38.8837 134.346 35.8735 136.977 31.4392L133.549 30.1705C131.476 33.3372 127.677 35.4578 123.333 35.4578C121.2 35.4578 119.472 33.4391 119.472 31.3061V26.6906L138.73 26.6894ZM119.472 17.9859C119.472 15.8544 121.2 14.1274 123.333 14.1274C125.465 14.1274 127.193 15.8544 127.193 17.9859V23.0569H119.472V17.9859Z" fill="#DE1E34"/>
<path fill-rule="evenodd" clip-rule="evenodd" d="M242.429 26.6894C242.513 26.0937 242.555 25.2622 242.555 24.6454C242.555 16.7835 235.606 10.4098 227.033 10.4098C218.461 10.4098 211.512 16.7835 211.512 24.6454C211.512 32.51 218.461 38.8837 227.033 38.8837C232.924 38.8837 238.047 35.8735 240.678 31.4392L237.249 30.1705C235.177 33.3372 231.378 35.4578 227.033 35.4578C224.901 35.4578 223.173 33.4391 223.173 31.3061V26.6906L242.429 26.6894ZM223.173 17.9859C223.173 15.8544 224.901 14.1274 227.033 14.1274C229.166 14.1274 230.894 15.8544 230.894 17.9859V23.0569H223.173V17.9859Z" fill="#DE1E34"/>
</g>
<defs>
<clipPath id="clip0_13_33">
<rect width="270.982" height="48" fill="white" transform="translate(0.785156 0.5)"/>
</clipPath>
</defs>
</svg>
