<svg width="325" height="49" viewBox="0 0 325 49" fill="none" xmlns="http://www.w3.org/2000/svg">
<g clip-path="url(#clip0_13_7)">
<path fill-rule="evenodd" clip-rule="evenodd" d="M317.335 6.20757V3.61323H318.973C320.099 3.61323 320.61 4.02832 320.61 4.96229C320.61 5.79248 319.996 6.20757 318.666 6.20757H317.335ZM321.532 9.52833L319.689 6.72644C320.713 6.51889 321.225 5.89625 321.225 4.96229C321.225 3.717 320.406 3.09436 318.973 3.09436H316.721V9.83965H317.335V6.83022H318.666H319.075L320.917 9.73588V9.83965H321.634L321.532 9.52833Z" fill="#008880"/>
<path fill-rule="evenodd" clip-rule="evenodd" d="M214.155 24.2642C213.848 24.0567 213.848 23.6416 214.155 23.434L238.108 3.50946C238.415 3.30191 238.312 3.09436 238.005 3.09436H220.502C220.092 3.09436 219.58 3.30191 219.273 3.50946L204.943 15.651C204.636 15.8585 204.227 15.8585 203.919 15.651L189.691 3.50946C189.384 3.30191 188.873 3.09436 188.463 3.09436H170.96C170.55 3.09436 170.55 3.30191 170.857 3.50946L194.809 23.434C195.117 23.6416 195.117 24.0567 194.809 24.2642L169.629 45.5378C169.322 45.7454 169.117 45.9529 169.117 46.0567H169.834H186.314C186.723 46.0567 187.235 45.8492 187.542 45.6416L204.022 31.8397C204.329 31.6321 204.738 31.6321 205.045 31.8397L221.628 45.6416C221.935 45.8492 222.447 46.0567 222.856 46.0567H239.336H240.052C240.052 46.0567 239.848 45.8492 239.541 45.5378L214.155 24.2642Z" fill="#008880"/>
<path fill-rule="evenodd" clip-rule="evenodd" d="M321.02 46.0567C321.43 46.0567 321.532 45.8492 321.225 45.5378L288.47 3.61323C288.265 3.30191 287.753 3.09436 287.344 3.09436H273.832C273.423 3.09436 273.014 3.30191 272.706 3.61323L240.054 45.5378C239.849 45.8492 239.951 46.0567 240.258 46.0567H255.612C256.022 46.0567 256.431 45.8492 256.636 45.5378L280.076 14.3019C280.281 13.9906 280.691 13.9906 280.895 14.3019L304.233 45.5378C304.438 45.8492 304.95 46.0567 305.257 46.0567H321.02Z" fill="#008880"/>
<path fill-rule="evenodd" clip-rule="evenodd" d="M158.473 24.1604C158.473 33.6038 146.701 39.934 132.064 39.934C117.529 39.934 105.758 33.5001 105.758 24.1604C105.758 14.8208 117.529 8.38681 132.064 8.38681C146.701 8.38681 158.473 14.8208 158.473 24.1604ZM172.087 24.1604C172.087 11.0849 154.174 0.5 132.166 0.5C110.159 0.5 92.2461 11.0849 92.2461 24.1604C92.2461 37.2359 110.159 47.9246 132.166 47.9246C154.174 47.9246 172.087 37.2359 172.087 24.1604Z" fill="#008880"/>
<path fill-rule="evenodd" clip-rule="evenodd" d="M318.768 11.6038C316.005 11.6038 313.65 9.32074 313.65 6.41508C313.65 3.61318 315.902 1.22639 318.768 1.22639C321.532 1.22639 323.886 3.50941 323.886 6.41508C323.886 9.21697 321.635 11.6038 318.768 11.6038ZM318.768 0.70752C315.595 0.70752 313.139 3.30186 313.139 6.41508C313.139 9.63206 315.698 12.1226 318.768 12.1226C321.942 12.1226 324.501 9.52829 324.501 6.41508C324.501 3.30186 321.942 0.70752 318.768 0.70752Z" fill="#008880"/>
<path fill-rule="evenodd" clip-rule="evenodd" d="M65.6324 3.09436C65.223 3.09436 64.8135 3.30191 64.6088 3.61323L42.4991 35.5756C42.2944 35.8869 41.9873 35.8869 41.6803 35.5756L19.4682 3.717C19.2635 3.40568 18.7517 3.19813 18.4446 3.19813H0.838767C0.531688 3.09436 0.224609 3.40568 0.224609 3.82078V45.4341C0.224609 45.8491 0.531688 46.1605 0.941127 46.1605H15.3738C15.7833 46.1605 16.0904 45.8491 16.0904 45.4341V17.6227C16.0904 17.2076 16.2951 17.2076 16.4998 17.5189L36.4599 45.5378C36.6646 45.8492 37.1764 46.0567 37.4835 46.0567H46.7982C47.2077 46.0567 47.6171 45.8492 47.8218 45.5378L67.782 17.4151C67.9867 17.1038 68.1914 17.2076 68.1914 17.5189V45.3303C68.1914 45.7454 68.4985 46.0567 68.9079 46.0567H83.2383C83.6477 46.0567 83.9548 45.7454 83.9548 45.3303V3.82078C83.9548 3.40568 83.6477 3.09436 83.2383 3.09436H65.6324Z" fill="#008880"/>
</g>
<defs>
<clipPath id="clip0_13_7">
<rect width="324.48" height="48" fill="white" transform="translate(0.224609 0.5)"/>
</clipPath>
</defs>
</svg>
