<svg width="194" height="49" viewBox="0 0 194 49" fill="none" xmlns="http://www.w3.org/2000/svg">
<g clip-path="url(#clip0_16_7)">
<path d="M37.2127 7.82548H30.4086V21.5569C29.5888 21.9489 28.6953 22.2913 27.7261 22.5781C27.2558 22.7172 26.7238 22.8387 26.174 22.943V8.436C26.174 8.436 26.296 6.35381 25.1367 5.64966V5.38933H36.0037C36.493 5.98495 36.9306 6.78392 37.2127 7.82548ZM39.1289 26.6082C44.058 24.2442 46.4334 20.0843 46.4764 15.3165C46.5059 12.0719 45.3629 10.0791 44.0823 9.02074C44.0069 8.95832 43.9293 8.89897 43.8494 8.8427C43.7643 8.46036 43.6607 8.08463 43.5382 7.71766C43.2824 6.95133 42.9767 6.24859 42.6253 5.60616C42.8608 5.64068 43.0795 5.67898 43.2734 5.7206C46.8476 6.48126 49.7221 8.59182 51.0817 12.6689C52.19 15.9927 51.6528 20.116 49.2743 23.4227C48.7118 24.2049 47.2162 25.8733 45.4942 27.1069C45.1835 27.3291 44.9948 27.4535 44.6659 27.6595C46.8197 31.1116 47.8816 33.0936 49.2568 36.8614C50.4566 40.1474 51.366 44.5212 51.491 45.5481C51.789 47.993 52.5205 48.1884 52.688 48.2387V48.4998H44.0986L44.0975 48.2387C44.363 48.098 46.6854 47.1463 46.6958 43.504C46.7088 40.831 46.0557 37.8888 44.868 34.5853C44.3384 33.112 43.303 30.7376 42.3141 28.9264L42.2865 28.8838C41.8509 29.0819 41.2302 29.307 40.5424 29.5265C40.0962 28.4932 39.642 27.5597 39.1289 26.6082ZM30.4086 26.3207V28.5518C31.0577 28.5237 33.0878 28.3594 34.917 28.0033C35.3308 28.9391 35.6902 29.8272 35.9387 30.5181L35.973 30.6134C35.2201 30.735 34.4231 30.8437 33.5144 30.9454C32.2922 31.0823 31.108 31.1637 30.4086 31.2083L30.4084 45.6292C30.4084 45.9454 30.4824 47.645 31.5899 48.2392V48.5H24.9932V48.2392C26.0681 47.6731 26.174 45.9454 26.174 45.6292V27.0901C27.5773 26.9052 29.1112 26.6519 30.4086 26.3207ZM31.3218 2.99929L30.398 2.98628H21.8115V24.1356C22.6622 24.0987 25.8375 23.8323 27.9155 23.217C34.8451 21.1658 38.1552 16.3216 38.207 10.6298C38.2373 7.31924 37.0706 5.28577 35.7633 4.20566C34.948 3.53248 33.8707 3.21398 33.0859 3.09883C32.6457 3.0104 31.6649 2.99976 31.3218 2.99929ZM17.4906 41.6141V3.60886C17.4906 3.60886 17.615 1.48434 16.4318 0.766007V0.5H31.1224C32.3484 0.502837 33.9532 0.626974 34.9369 0.838361C38.5855 1.61439 41.5185 3.76799 42.9062 7.92858C44.0372 11.32 43.4886 15.5274 41.0619 18.9027C40.4878 19.701 38.9617 21.4027 37.2042 22.6611C36.8878 22.8876 36.6951 23.0146 36.3589 23.2248C38.5572 26.7479 39.6411 28.7708 41.0444 32.6145C42.2683 35.9676 43.1961 40.4311 43.3238 41.4788C43.6274 43.9734 44.3743 44.2252 44.5448 44.2765V44.543H35.7796L35.7786 44.2765C36.0496 44.1328 38.4198 43.1099 38.4309 39.3929C38.4439 36.6656 37.7778 33.6629 36.5658 30.2928C36.0248 28.7892 34.9667 26.3661 33.9573 24.5177L33.9291 24.4745C32.7646 25.0039 30.3055 25.7225 28.7069 26.0249C27.566 26.2405 26.4088 26.4179 24.9795 26.5782C23.7331 26.7177 22.5251 26.8009 21.8115 26.8463L21.8112 41.6141C21.8112 41.9364 21.8869 43.6705 23.0167 44.2772V44.543H16.2852V44.2772C17.3823 43.6989 17.4906 41.9364 17.4906 41.6141Z" fill="#151515"/>
<path d="M74.7252 21.12C74.7252 23.452 73.1412 24.728 71.4252 25.322L77.5632 33H75.0112L69.2032 25.718H67.3772V33H65.3532V16.5H68.9832C73.1852 16.5 74.7252 18.766 74.7252 21.12ZM68.9612 18.282H67.3772V23.936H68.9612C71.1392 23.936 72.6132 23.078 72.6132 21.12C72.6132 19.14 71.1392 18.282 68.9612 18.282Z" fill="#151515"/>
<path d="M77.6788 27.522C77.6788 24.376 79.9888 21.758 83.4868 21.758C86.9848 21.758 89.2948 24.376 89.2948 27.522C89.2948 30.668 86.9848 33.286 83.4868 33.286C79.9888 33.286 77.6788 30.668 77.6788 27.522ZM83.4868 23.32C81.3088 23.32 79.7468 25.014 79.7468 27.522C79.7468 30.03 81.3088 31.724 83.4868 31.724C85.6648 31.724 87.2268 30.03 87.2268 27.522C87.2268 25.014 85.6648 23.32 83.4868 23.32Z" fill="#151515"/>
<path d="M93.8356 33H91.8556V16.5H93.8356V33Z" fill="#151515"/>
<path d="M99.1637 33H97.1837V16.5H99.1637V33Z" fill="#151515"/>
<path d="M109.354 24.772H107.594C107.286 23.672 106.516 23.232 105.504 23.232C104.624 23.232 103.722 23.672 103.722 24.64C103.722 25.454 104.426 25.982 105.526 26.312L106.494 26.598C108.166 27.082 109.816 28.072 109.816 29.964C109.816 31.966 108.188 33.286 105.9 33.286C103.524 33.286 101.852 31.9 101.632 29.524H103.392C103.612 30.998 104.47 31.746 105.922 31.746C107 31.746 107.99 31.218 107.99 30.228C107.99 29.128 107.044 28.666 105.856 28.314L104.888 28.028C103.062 27.478 101.962 26.334 101.962 24.64C101.962 22.946 103.59 21.758 105.636 21.758C107.528 21.758 109.024 22.77 109.354 24.772Z" fill="#151515"/>
<path d="M112.023 28.182V26.224H117.369V28.182H112.023Z" fill="#151515"/>
<path d="M129.961 21.12C129.961 23.452 128.377 24.728 126.661 25.322L132.799 33H130.247L124.439 25.718H122.613V33H120.589V16.5H124.219C128.421 16.5 129.961 18.766 129.961 21.12ZM124.197 18.282H122.613V23.936H124.197C126.375 23.936 127.849 23.078 127.849 21.12C127.849 19.14 126.375 18.282 124.197 18.282Z" fill="#151515"/>
<path d="M132.915 27.522C132.915 24.376 135.225 21.758 138.723 21.758C142.221 21.758 144.531 24.376 144.531 27.522C144.531 30.668 142.221 33.286 138.723 33.286C135.225 33.286 132.915 30.668 132.915 27.522ZM138.723 23.32C136.545 23.32 134.983 25.014 134.983 27.522C134.983 30.03 136.545 31.724 138.723 31.724C140.901 31.724 142.463 30.03 142.463 27.522C142.463 25.014 140.901 23.32 138.723 23.32Z" fill="#151515"/>
<path d="M147.015 37.488L150.095 31.504L145.233 22H147.389L151.151 29.436L154.979 22H156.871L148.885 37.488H147.015Z" fill="#151515"/>
<path d="M157.472 27.522C157.472 24.09 159.958 21.758 163.17 21.758C164.248 21.758 165.106 21.978 165.766 22.33V24.002C165.084 23.606 164.248 23.342 163.302 23.342C161.278 23.342 159.584 24.728 159.584 27.522C159.584 30.316 161.278 31.702 163.302 31.702C164.248 31.702 165.084 31.438 165.766 31.042V32.714C165.106 33.066 164.248 33.286 163.17 33.286C159.958 33.286 157.472 30.954 157.472 27.522Z" fill="#151515"/>
<path d="M172.791 33.286C169.777 33.286 167.291 31.042 167.291 27.544C167.291 23.914 169.821 21.758 172.659 21.758C175.387 21.758 177.653 23.716 177.697 27.39H169.381C169.381 30.36 171.097 31.702 173.187 31.702C174.903 31.702 176.069 30.998 177.213 29.876V31.746C176.025 32.824 174.419 33.286 172.791 33.286ZM172.593 23.232C170.525 23.232 169.689 24.42 169.469 26.136H175.519C175.343 24.2 174.287 23.232 172.593 23.232Z" fill="#151515"/>
</g>
<defs>
<clipPath id="clip0_16_7">
<rect width="193" height="48" fill="#151515" transform="translate(0.490234 0.5)"/>
</clipPath>
</defs>
</svg>
