<svg width="303" height="49" viewBox="0 0 303 49" fill="none" xmlns="http://www.w3.org/2000/svg">
<g clip-path="url(#clip0_13_55)">
<path fill-rule="evenodd" clip-rule="evenodd" d="M1.48436 46.5489V37.4691C6.65236 39.0956 11.2253 39.9089 15.2033 39.9089C20.6955 39.9089 23.4421 38.4571 23.4421 35.5557C23.4421 34.474 23.0424 33.5651 22.2412 32.8291C21.4219 32.0484 19.3235 30.9661 15.9514 29.5796C9.90096 27.0917 5.9556 24.97 4.12043 23.2152C1.74187 20.8988 0.552734 17.9777 0.552734 14.4478C0.552734 9.90197 2.28556 6.43721 5.74881 4.05623C9.17371 1.69608 13.6335 0.517212 19.1351 0.517212C22.1663 0.517212 26.5536 1.0751 32.2922 2.19238V10.9269C28.0223 9.22121 24.0588 8.37019 20.397 8.37019C15.2404 8.37019 12.6623 9.78604 12.6623 12.6241C12.6623 13.6849 13.1816 14.5501 14.2216 15.2209C15.0865 15.7637 17.4696 16.9103 21.3657 18.6642C26.9757 21.1557 30.7103 23.3214 32.5711 25.1636C34.7791 27.3486 35.8853 30.1761 35.8853 33.6417C35.8853 38.6232 33.7186 42.423 29.3884 45.0413C25.8801 47.1645 21.331 48.2217 15.7437 48.2217C11.0252 48.2217 6.27107 47.6659 1.48436 46.5489Z" fill="#009999"/>
<path fill-rule="evenodd" clip-rule="evenodd" d="M43.1387 1.31628H55.9809V47.2927H43.1387V1.31628Z" fill="#009999"/>
<path fill-rule="evenodd" clip-rule="evenodd" d="M67.7578 47.2927V1.31628H100.695V9.63206H80.1352V20.0136H98.0316V27.5989H80.1352V38.5093H101.225V47.2927H67.7578Z" fill="#009999"/>
<path fill-rule="evenodd" clip-rule="evenodd" d="M109.609 47.2927V1.31628H126.26L137.828 30.6932L149.686 1.31628H165.502V47.2927H153.325V14.7403L139.842 47.7594H131.881L118.658 14.7403V47.2927H109.609Z" fill="#009999"/>
<path fill-rule="evenodd" clip-rule="evenodd" d="M177.281 47.2927V1.31628H210.218V9.63206H189.66V20.0136H207.556V27.5989H189.66V38.5093H210.751V47.2927H177.281Z" fill="#009999"/>
<path fill-rule="evenodd" clip-rule="evenodd" d="M219.201 47.2927V1.31628H234.085L249.876 32.0939V1.31628H258.922V47.2927H244.461L228.251 16.1009V47.2927H219.201Z" fill="#009999"/>
<path fill-rule="evenodd" clip-rule="evenodd" d="M268.038 46.5489V37.4691C273.163 39.0956 277.735 39.9089 281.76 39.9089C287.253 39.9089 289.996 38.4571 289.996 35.5557C289.996 34.474 289.607 33.5651 288.832 32.8291C288.009 32.0484 285.902 30.9661 282.509 29.5795C276.477 27.1122 272.528 24.9915 270.676 23.2152C268.298 20.9193 267.111 17.9874 267.111 14.4164C267.111 9.89019 268.84 6.43691 272.307 4.05593C275.727 1.69577 280.191 0.516907 285.694 0.516907C288.787 0.516907 292.796 1.00808 297.712 1.99494L298.847 2.19208V10.9266C294.577 9.22091 290.602 8.36989 286.92 8.36989C281.783 8.36989 279.221 9.78574 279.221 12.6238C279.221 13.6846 279.738 14.5498 280.775 15.2206C281.599 15.7426 283.992 16.8897 287.953 18.6639C293.521 21.1554 297.247 23.3211 299.125 25.1632C301.336 27.3483 302.439 30.1758 302.439 33.6414C302.439 38.6229 300.285 42.4227 295.977 45.041C292.448 47.1642 287.888 48.2214 282.301 48.2214C277.578 48.2217 272.822 47.6659 268.038 46.5489Z" fill="#009999"/>
</g>
<defs>
<clipPath id="clip0_13_55">
<rect width="301.887" height="48" fill="white" transform="translate(0.552734 0.5)"/>
</clipPath>
</defs>
</svg>
