<svg width="539" height="348" viewBox="0 0 539 348" fill="none" xmlns="http://www.w3.org/2000/svg">
<path d="M378.286 170.255C385.708 170.255 391.73 176.26 391.752 183.681V183.681C391.775 191.134 385.739 197.187 378.286 197.187H166.329C146.73 197.187 125.731 198.127 110.208 210.093C96.793 220.435 83.914 239.591 68.7576 283.261H146.208C153.674 283.261 159.727 289.313 159.727 296.779V296.779C159.727 304.245 153.674 310.297 146.208 310.297H54.7065L42.0048 336.589C39.1808 342.434 33.2612 346.149 26.7693 346.149V346.149C14.5463 346.149 6.35586 333.586 11.2871 322.402L61.0246 209.597C61.2767 209.025 61.5872 208.469 61.9438 207.955C79.631 182.489 93.7951 174.119 126.127 170.255L378.286 170.255Z" fill="url(#paint0_linear_21_36)"/>
<path d="M185.731 226.261C185.731 217.973 192.45 211.255 200.738 211.255V211.255C209.026 211.255 215.744 217.973 215.744 226.261V332.243C215.744 340.531 209.026 347.25 200.738 347.25V347.25C192.45 347.25 185.731 340.531 185.731 332.243V226.261Z" fill="url(#paint1_linear_21_36)"/>
<path d="M374.68 121.004C382.952 121.004 389.657 127.71 389.657 135.982V135.982C389.657 144.276 382.916 150.991 374.622 150.959L139.158 150.047C134.111 150.028 129.174 151.518 124.98 154.327V154.327C117.086 160.076 110.848 162.337 104.801 162.28C92.7335 162.167 90.7263 145.592 99.3476 137.147V137.147C109.911 126.8 124.11 121.004 138.898 121.004L374.68 121.004Z" fill="#B0B0B0"/>
<path d="M376.818 64.7267C385.088 64.7267 391.793 71.4311 391.793 79.7014V79.7014C391.793 87.9967 385.049 94.7113 376.754 94.676L164.17 93.771C159.45 93.7509 154.85 95.251 151.049 98.0493V98.0493C143.458 104.128 137.549 106.307 131.751 105.971C120.729 105.33 119.012 90.2637 126.525 82.1728V82.1728C136.855 71.0479 151.351 64.7267 166.532 64.7267L376.818 64.7267Z" fill="#B0B0B0"/>
<path d="M250.043 226.024C249.911 217.906 256.456 211.255 264.575 211.255L274.807 211.255C279.206 211.255 282.407 215.429 281.265 219.677V219.677C281.113 220.243 281.036 220.826 281.036 221.412V291.812C281.036 304.514 291.334 314.812 304.036 314.812H401.742C412.957 314.812 422.193 306 422.719 294.797L423.042 287.916C423.578 276.514 414.478 266.977 403.064 266.977H365.903C357.415 266.977 350.534 260.096 350.534 251.609V251.609C350.534 243.167 357.342 236.306 365.783 236.24L433.072 235.717C444.33 235.629 453.441 244.846 453.224 256.102L452.357 301.044C451.874 326.098 431.425 346.156 406.366 346.156H297.253C272.14 346.156 251.667 326.014 251.259 300.904L250.043 226.024Z" fill="url(#paint2_linear_21_36)"/>
<path d="M445.821 157.686C445.821 195.149 434.981 225.519 421.609 225.519C408.238 225.519 397.398 195.149 397.398 157.686C397.398 121.206 409.109 78.4574 420.675 45.5561C420.987 44.6695 422.232 44.6694 422.543 45.5561C434.003 78.1639 445.821 121.215 445.821 157.686Z" fill="url(#paint3_radial_21_36)"/>
<g opacity="0.8" filter="url(#filter0_f_21_36)">
<path d="M438.677 181.129C438.677 212.44 431.036 237.823 421.609 237.823C412.183 237.823 404.542 212.44 404.542 181.129C404.542 156.603 409.883 128.688 416.217 104.392C417.717 98.6385 425.499 98.6397 426.998 104.394C433.301 128.604 438.677 156.641 438.677 181.129Z" fill="url(#paint4_radial_21_36)"/>
</g>
<path opacity="0.7" d="M440.516 143.541C440.516 175.029 432.051 200.556 421.609 200.556C411.168 200.556 402.703 175.029 402.703 143.541C402.703 113.117 411.706 77.506 420.669 49.9398C420.967 49.0244 422.252 49.0241 422.549 49.9396C431.432 77.268 440.516 113.127 440.516 143.541Z" fill="url(#paint5_radial_21_36)"/>
<g style="mix-blend-mode:color-dodge" opacity="0.2" filter="url(#filter1_f_21_36)">
<path fill-rule="evenodd" clip-rule="evenodd" d="M400.572 122.486C398.679 134.501 397.557 146.394 397.557 157.686C397.557 160.027 397.599 162.341 397.682 164.621C398.922 198.827 409.233 225.519 421.768 225.519L422.435 204.994C409.883 202.476 399.978 173.146 399.978 137.336C399.978 132.484 400.185 127.522 400.572 122.486Z" fill="url(#paint6_radial_21_36)"/>
</g>
<g style="mix-blend-mode:screen" opacity="0.4">
<path d="M463.159 90.9177C463.159 126.508 452.861 155.359 440.158 155.359C427.455 155.359 417.158 126.508 417.158 90.9177C417.158 55.3279 427.455 26.4767 440.158 26.4767C452.861 26.4767 463.159 55.3279 463.159 90.9177Z" fill="url(#paint7_radial_21_36)"/>
</g>
<g style="mix-blend-mode:lighten" filter="url(#filter2_f_21_36)">
<ellipse cx="407.619" cy="194.756" rx="23.0006" ry="64.441" fill="url(#paint8_radial_21_36)"/>
</g>
<g style="mix-blend-mode:lighten" filter="url(#filter3_f_21_36)">
<ellipse cx="407.619" cy="194.756" rx="23.0006" ry="64.441" fill="url(#paint9_radial_21_36)"/>
</g>
<defs>
<filter id="filter0_f_21_36" x="304.542" y="0.0776062" width="234.135" height="337.746" filterUnits="userSpaceOnUse" color-interpolation-filters="sRGB">
<feFlood flood-opacity="0" result="BackgroundImageFix"/>
<feBlend mode="normal" in="SourceGraphic" in2="BackgroundImageFix" result="shape"/>
<feGaussianBlur stdDeviation="50" result="effect1_foregroundBlur_21_36"/>
</filter>
<filter id="filter1_f_21_36" x="389.557" y="114.486" width="40.8782" height="119.033" filterUnits="userSpaceOnUse" color-interpolation-filters="sRGB">
<feFlood flood-opacity="0" result="BackgroundImageFix"/>
<feBlend mode="normal" in="SourceGraphic" in2="BackgroundImageFix" result="shape"/>
<feGaussianBlur stdDeviation="4" result="effect1_foregroundBlur_21_36"/>
</filter>
<filter id="filter2_f_21_36" x="334.618" y="80.3154" width="146.001" height="228.882" filterUnits="userSpaceOnUse" color-interpolation-filters="sRGB">
<feFlood flood-opacity="0" result="BackgroundImageFix"/>
<feBlend mode="normal" in="SourceGraphic" in2="BackgroundImageFix" result="shape"/>
<feGaussianBlur stdDeviation="25" result="effect1_foregroundBlur_21_36"/>
</filter>
<filter id="filter3_f_21_36" x="334.618" y="80.3154" width="146.001" height="228.882" filterUnits="userSpaceOnUse" color-interpolation-filters="sRGB">
<feFlood flood-opacity="0" result="BackgroundImageFix"/>
<feBlend mode="normal" in="SourceGraphic" in2="BackgroundImageFix" result="shape"/>
<feGaussianBlur stdDeviation="25" result="effect1_foregroundBlur_21_36"/>
</filter>
<linearGradient id="paint0_linear_21_36" x1="196.305" y1="170.255" x2="196.305" y2="346.149" gradientUnits="userSpaceOnUse">
<stop stop-color="#1875F1"/>
<stop offset="0.792172" stop-color="#52BBF8"/>
</linearGradient>
<linearGradient id="paint1_linear_21_36" x1="200.738" y1="211.255" x2="200.738" y2="347.25" gradientUnits="userSpaceOnUse">
<stop stop-color="#1875F1"/>
<stop offset="0.792172" stop-color="#52BBF8"/>
</linearGradient>
<linearGradient id="paint2_linear_21_36" x1="351.712" y1="211.255" x2="351.712" y2="346.156" gradientUnits="userSpaceOnUse">
<stop stop-color="#1875F1"/>
<stop offset="0.792172" stop-color="#52BBF8"/>
</linearGradient>
<radialGradient id="paint3_radial_21_36" cx="0" cy="0" r="1" gradientUnits="userSpaceOnUse" gradientTransform="translate(417.069 193.174) rotate(-63.1903) scale(83.6343 53.0816)">
<stop stop-color="#3CC7F5"/>
<stop offset="1" stop-color="#5686F5"/>
</radialGradient>
<radialGradient id="paint4_radial_21_36" cx="0" cy="0" r="1" gradientUnits="userSpaceOnUse" gradientTransform="translate(418.408 210.79) rotate(-66.9144) scale(67.8181 38.5693)">
<stop stop-color="#3CC7F5"/>
<stop offset="1" stop-color="#5686F5"/>
</radialGradient>
<radialGradient id="paint5_radial_21_36" cx="0" cy="0" r="1" gradientUnits="userSpaceOnUse" gradientTransform="translate(421.609 52.2267) rotate(90.5079) scale(148.335 40.2393)">
<stop stop-color="white"/>
<stop offset="0.9999" stop-color="#5988F5" stop-opacity="0"/>
<stop offset="1" stop-color="#5686F5"/>
</radialGradient>
<radialGradient id="paint6_radial_21_36" cx="0" cy="0" r="1" gradientUnits="userSpaceOnUse" gradientTransform="translate(407.73 193.174) rotate(-75.3532) scale(77.1507 29.7587)">
<stop stop-color="#3CC7F5"/>
<stop offset="1" stop-color="#5686F5"/>
</radialGradient>
<radialGradient id="paint7_radial_21_36" cx="0" cy="0" r="1" gradientUnits="userSpaceOnUse" gradientTransform="translate(430.62 90.9177) rotate(74.1329) scale(66.9936 16.1442)">
<stop stop-color="white"/>
<stop offset="0.761432" stop-color="#BDDBF1" stop-opacity="0.25"/>
<stop offset="1" stop-color="#5686F5" stop-opacity="0"/>
</radialGradient>
<radialGradient id="paint8_radial_21_36" cx="0" cy="0" r="1" gradientUnits="userSpaceOnUse" gradientTransform="translate(413.992 176.859) rotate(82.0235) scale(59.4341 23.1363)">
<stop offset="0.0175822" stop-color="white"/>
<stop offset="0.458333" stop-color="#BDDBF1" stop-opacity="0.25"/>
<stop offset="1" stop-color="#5686F5" stop-opacity="0"/>
</radialGradient>
<radialGradient id="paint9_radial_21_36" cx="0" cy="0" r="1" gradientUnits="userSpaceOnUse" gradientTransform="translate(413.992 176.859) rotate(82.0235) scale(59.4341 23.1363)">
<stop offset="0.0175822" stop-color="white"/>
<stop offset="0.458333" stop-color="#BDDBF1" stop-opacity="0.25"/>
<stop offset="1" stop-color="#5686F5" stop-opacity="0"/>
</radialGradient>
</defs>
</svg>
